name D:\school\WTK\thesis\model\3dpredictsim\Results\batch_windlass\Pog_s1_tmt_bCst_d00_k800_WL20_ig24.mot
datacolumns 128
datarows 4
range 1.55225801 1.58330317
endheader
time	pelvis_tilt	pelvis_list	pelvis_rotation	pelvis_tx	pelvis_ty	pelvis_tz	hip_flexion_l	hip_adduction_l	hip_rotation_l	hip_flexion_r	hip_adduction_r	hip_rotation_r	knee_angle_l	knee_angle_r	ankle_angle_l	ankle_angle_r	subtalar_angle_l	subtalar_angle_r	tmt_angle_l	tmt_angle_r	mtp_angle_l	mtp_angle_r	lumbar_extension	lumbar_bending	lumbar_rotation	arm_flex_l	arm_add_l	arm_rot_l	arm_flex_r	arm_add_r	arm_rot_r	elbow_flex_l	elbow_flex_r	pro_sup_l	pro_sup_r	glut_med1_l/activation	glut_med2_l/activation	glut_med3_l/activation	glut_min1_l/activation	glut_min2_l/activation	glut_min3_l/activation	semimem_l/activation	semiten_l/activation	bifemlh_l/activation	bifemsh_l/activation	sar_l/activation	add_long_l/activation	add_brev_l/activation	add_mag1_l/activation	add_mag2_l/activation	add_mag3_l/activation	tfl_l/activation	pect_l/activation	grac_l/activation	glut_max1_l/activation	glut_max2_l/activation	glut_max3_l/activation	iliacus_l/activation	psoas_l/activation	quad_fem_l/activation	gem_l/activation	peri_l/activation	rect_fem_l/activation	vas_med_l/activation	vas_int_l/activation	vas_lat_l/activation	med_gas_l/activation	lat_gas_l/activation	soleus_l/activation	tib_post_l/activation	flex_dig_l/activation	flex_hal_l/activation	tib_ant_l/activation	per_brev_l/activation	per_long_l/activation	per_tert_l/activation	ext_dig_l/activation	ext_hal_l/activation	ercspn_l/activation	intobl_l/activation	extobl_l/activation	glut_med1_r/activation	glut_med2_r/activation	glut_med3_r/activation	glut_min1_r/activation	glut_min2_r/activation	glut_min3_r/activation	semimem_r/activation	semiten_r/activation	bifemlh_r/activation	bifemsh_r/activation	sar_r/activation	add_long_r/activation	add_brev_r/activation	add_mag1_r/activation	add_mag2_r/activation	add_mag3_r/activation	tfl_r/activation	pect_r/activation	grac_r/activation	glut_max1_r/activation	glut_max2_r/activation	glut_max3_r/activation	iliacus_r/activation	psoas_r/activation	quad_fem_r/activation	gem_r/activation	peri_r/activation	rect_fem_r/activation	vas_med_r/activation	vas_int_r/activation	vas_lat_r/activation	med_gas_r/activation	lat_gas_r/activation	soleus_r/activation	tib_post_r/activation	flex_dig_r/activation	flex_hal_r/activation	tib_ant_r/activation	per_brev_r/activation	per_long_r/activation	per_tert_r/activation	ext_dig_r/activation	ext_hal_r/activation	ercspn_r/activation	intobl_r/activation	extobl_r/activation	
          1.55225801	         -2.92972913	          1.27188703	         -4.84692933	          1.94032251	          0.86156061	          0.00134878	         31.38261115	          1.66072289	         -3.41819235	        -17.60816031	         -0.80799783	          7.09771708	        -18.72855536	         -7.22488185	          1.81384803	          0.41819412	          2.93496881	         11.15292782	         -0.34328934	         -4.04518494	          1.55065563	         25.09091288	         -1.15081155	          0.52953114	          1.57618254	         -6.62235842	        -13.50652851	          9.00011484	          5.12908793	        -13.45009393	         15.37691112	         16.70337427	         29.26757007	         86.51662706	         86.51662706	          0.05000040	          0.05857093	          0.05000184	          0.05862406	          0.05862289	          0.05000269	          0.05613779	          0.05639438	          0.09430743	          0.05000044	          0.05000059	          0.13432491	          0.15282143	          0.15683590	          0.13850732	          0.08375986	          0.05000086	          0.05001087	          0.05714832	          0.05030774	          0.06379679	          0.11013819	          0.06080573	          0.05862457	          0.22918696	          0.10209228	          0.05072339	          0.05026155	          0.07360982	          0.07738906	          0.06370006	          0.06873462	          0.06873453	          0.06732276	          0.05000034	          0.05854507	          0.05014612	          0.46331435	          0.26472062	          0.15913280	          0.21368691	          0.54535050	          0.05862399	          0.06027837	          0.13320863	          0.13618918	          0.31212996	          0.10920200	          0.06780769	          0.34135425	          0.22280071	          0.11083175	          0.05000210	          0.05000029	          0.05000027	          0.08058921	          0.10120968	          0.05000024	          0.05000024	          0.05000042	          0.05000113	          0.05000091	          0.33046869	          0.05000091	          0.05000110	          0.05005104	          0.05000911	          0.05000242	          0.33892296	          0.55538101	          0.05000120	          0.05010289	          0.05862355	          0.20935880	          0.05000867	          0.05001697	          0.05002131	          0.32795877	          0.42462659	          0.28607307	          0.24826704	          0.22698250	          0.30781172	          0.05000003	          0.10816222	          0.18670986	          0.05000015	          0.05000005	          0.05000018	          0.05000002	          0.05000007	          0.05000004	
          1.56260639	         -2.92516861	          1.37569584	         -5.10384034	          1.95560242	          0.86076961	          0.00116088	         30.90996177	          2.05527103	         -3.24765900	        -17.43129033	         -1.09505315	          6.89758183	        -18.24723049	         -9.06546910	          1.54000081	         -0.31499932	          2.43144198	         12.02812921	         -0.40245516	         -4.57055688	          1.84571580	         26.26346390	         -0.98843399	          0.28001082	          1.63390356	         -7.47583696	        -13.49904250	          8.78784125	          5.01175241	        -13.45475384	         15.74667307	         16.50262975	         30.10569548	         86.51662706	         86.51662706	          0.05862337	          0.05000048	          0.05000262	          0.05000072	          0.05000064	          0.05000157	          0.05862369	          0.05862347	          0.08545324	          0.05000026	          0.05000090	          0.11616288	          0.16299158	          0.15793882	          0.15944399	          0.09699826	          0.05000094	          0.05862295	          0.07147534	          0.05000145	          0.06800289	          0.12789675	          0.05186119	          0.05000086	          0.26800338	          0.08708098	          0.05006858	          0.05000011	          0.12129103	          0.12376834	          0.10509353	          0.05862366	          0.05862366	          0.05862365	          0.05000013	          0.05000024	          0.05000039	          0.50961888	          0.25913921	          0.15046416	          0.32526375	          0.56151010	          0.05000075	          0.05236914	          0.11361340	          0.11615549	          0.26621536	          0.09313819	          0.05783307	          0.29114075	          0.19002636	          0.09452822	          0.05000113	          0.05000023	          0.05000014	          0.06873441	          0.08632177	          0.10909117	          0.05000164	          0.05000073	          0.05000163	          0.05000078	          0.28185638	          0.05992383	          0.05000046	          0.05000198	          0.05000135	          0.05000100	          0.28906690	          0.52453134	          0.05000010	          0.05000024	          0.05000009	          0.17856174	          0.10522514	          0.06467336	          0.05987259	          0.27971539	          0.36216320	          0.24399117	          0.21174663	          0.19359333	          0.26253221	          0.05000000	          0.10091942	          0.15924471	          0.05000014	          0.05000002	          0.05000009	          0.05000002	          0.05000005	          0.05000009	
          1.57295478	         -2.91553490	          1.48071186	         -5.33914804	          1.97117346	          0.85989004	          0.00096716	         30.34637838	          2.44439200	         -3.02138541	        -17.16214936	         -1.37449059	          6.67957066	        -18.31347639	        -11.08475137	          1.33322119	         -1.15297809	          1.90508396	         12.86937583	         -0.46808005	         -5.05908772	          2.11028755	         27.22938086	         -0.80528451	          0.02031698	          1.68589949	         -8.34911520	        -13.49405208	          8.60747345	          4.82021241	        -13.46605248	         16.04964813	         16.32283595	         30.93298791	         86.51662706	         86.51662706	          0.05000004	          0.05000014	          0.07377267	          0.05000010	          0.05000017	          0.05000021	          0.05000007	          0.05000026	          0.07288293	          0.05061858	          0.05862434	          0.09907535	          0.13901534	          0.35446553	          0.23439210	          0.08272987	          0.05000028	          0.05000249	          0.06096202	          0.05862206	          0.05862373	          0.12207063	          0.05000228	          0.06873518	          0.56672135	          0.11754631	          0.06239503	          0.06873471	          0.21220377	          0.20965032	          0.18174184	          0.05000001	          0.05000003	          0.05000000	          0.05000007	          0.05862430	          0.05795836	          0.59568824	          0.23268437	          0.14114140	          0.59489368	          0.59078564	          0.26529315	          0.05000001	          0.09690065	          0.09906880	          0.22705461	          0.07943740	          0.05171931	          0.24831353	          0.16207317	          0.08062298	          0.05006981	          0.05000083	          0.05000320	          0.05862351	          0.07362388	          0.18829734	          0.13456051	          0.13845626	          0.05005135	          0.12479416	          0.24039504	          0.06259973	          0.05002220	          0.05000222	          0.05000149	          0.05000173	          0.24654463	          0.45569669	          0.05000081	          0.05862585	          0.05862381	          0.15229500	          0.08974755	          0.15229465	          0.15229227	          0.23856871	          0.30888829	          0.20809959	          0.18059834	          0.16511556	          0.22391331	          0.05222946	          0.08607402	          0.13581953	          0.05000019	          0.05000276	          0.05000051	          0.05000001	          0.06932745	          0.05527318	
          1.58330317	         -2.90183882	          1.59573778	         -5.55162590	          1.98698467	          0.85889714	          0.00079247	         29.63160792	          2.78837452	         -2.72980524	        -16.82668461	         -1.65281592	          6.44645164	        -18.82700252	        -13.22813651	          1.46094978	         -2.07594710	          1.32128226	         13.64802684	         -0.63850622	         -5.50047320	          2.25150127	         27.85744305	         -0.60404862	         -0.25769487	          1.72736428	         -9.23153178	        -13.49992669	          8.48331964	          4.55855414	        -13.48042044	         16.28400105	         16.15390639	         31.76162529	         86.51662706	         86.51662706	          0.29431306	          0.23675688	          0.31059401	          0.05000216	          0.05000044	          0.33682004	          0.08603142	          0.05000025	          0.09526624	          0.05000005	          0.05000086	          0.08450154	          0.25530556	          0.30232309	          0.19991343	          0.12905423	          0.05000042	          0.06875902	          0.10963953	          0.05000009	          0.05000015	          0.11497184	          0.05862369	          0.05862414	          0.48335555	          0.10025512	          0.19506097	          0.05862371	          0.18830350	          0.20331772	          0.17230806	          0.05211298	          0.05116580	          0.05862364	          0.05000003	          0.05000063	          0.05000031	          0.52876828	          0.19845609	          0.12037924	          0.52001541	          0.56841531	          0.28547068	          0.05000004	          0.09410018	          0.08449559	          0.31004534	          0.06775203	          0.05000014	          0.21178661	          0.13823196	          0.06876322	          0.05000138	          0.05000039	          0.05000033	          0.05000013	          0.06279388	          0.16428027	          0.29580733	          0.11808943	          0.05862494	          0.10643817	          0.25768254	          0.06873053	          0.05000315	          0.05004356	          0.05005690	          0.05804656	          0.21027748	          0.42596154	          0.05000303	          0.05000212	          0.05000017	          0.12989212	          0.08498089	          0.12989204	          0.12988995	          0.20347478	          0.26345022	          0.17748773	          0.15403199	          0.14082684	          0.19097529	          0.14273625	          0.16585549	          0.16574385	          0.05000041	          0.17029261	          0.12449472	          0.06842749	          0.05912925	          0.05862370	
